:SAMPLES-PER-SECOND 30
:FULLY-SPECIFIED
:DEGREES
334
root  41.3494 39.23 -11.4866 -138.346 83.3722 -155.775
RightUpLeg  -36.1475 -11.8517 1.99996
RightLeg  8.88213 -14.0955 6.30824
RightFoot  14.3463 1.71154 -7.06748
RightToes  0.00048216 0.542163 -0.142577
Spine  56.1113 -2.38935 5.15428
Spine1  6.86062 1.01213 -3.22907
HEad  -31.1638 -0.0435251 -9.69773
LeftShoulder1  9.32339 -19.9787 -33.5967
LeftArm  -22.745 -22.1415 -27.6271
LeftForeArm  3.90747 -57.0169 -17.2571
LeftHand  -0.25398 0.0180481 5.50724
RightShoulder  5.59188 12.7825 28.3202
RightArm  -21.5016 12.8483 21.11
RightForeArm  -15.3592 67.4113 30.9173
RightHand  -0.0742044 -10.0671 0.041769
LeftUpLeg  -42.7849 25.623 -12.0236
LeftLeg  19.5294 -6.49491 -2.22017
LeftFoot  6.91269 -1.34237 8.0786
LeftToes  1.06243e-005 4.65856e-005 -8.18503e-006
335
root  41.0769 39.3249 -11.4413 -138.743 83.1557 -153.547
RightUpLeg  -33.7965 -12.769 2.33279
RightLeg  9.38659 -9.07208 5.93956
RightFoot  14.7218 1.09324 -4.26954
RightToes  0.00048216 0.542163 -0.142577
Spine  54.3472 -2.30587 4.60922
Spine1  6.98524 0.826851 -3.21296
HEad  -29.1333 2.13709 -11.3098
LeftShoulder1  9.65778 -19.2273 -36.3488
LeftArm  -21.6174 -15.3802 -25.9316
LeftForeArm  6.84391 -61.6741 -20.8826
LeftHand  -0.25398 0.0180481 5.50724
RightShoulder  5.60058 12.2137 29.6528
RightArm  -19.307 8.98066 22.666
RightForeArm  -9.41215 70.5505 37.1286
RightHand  -0.0437158 -11.6982 -0.721051
LeftUpLeg  -39.5471 26.4229 -10.5942
LeftLeg  18.2783 -6.91914 -2.29254
LeftFoot  7.34107 -1.40499 8.25386
LeftToes  1.06243e-005 4.65856e-005 -8.18503e-006
336
root  40.7994 39.3568 -11.3065 -138.914 82.7992 -151.009
RightUpLeg  -32.1673 -15.3367 4.33089
RightLeg  12.1786 0.886301 4.56762
RightFoot  12.6533 0.0703255 0.137197
RightToes  0.00048216 0.542163 -0.142577
Spine  53.163 -2.23657 3.97156
Spine1  6.16822 0.655663 -3.17343
HEad  -26.8451 5.02046 -12.7894
LeftShoulder1  9.81599 -18.2605 -38.8785
LeftArm  -20.7323 -8.66524 -24.0457
LeftForeArm  10.2863 -65.7345 -25.1889
LeftHand  -0.25398 0.0180481 5.50724
RightShoulder  5.609 11.818 30.6443
RightArm  -17.1192 5.19474 24.0381
RightForeArm  -1.78957 73.1458 44.4924
RightHand  -0.0211363 -13.2218 -1.07052
LeftUpLeg  -36.571 27.068 -8.58395
LeftLeg  17.8974 -7.10871 -2.67096
LeftFoot  7.48544 -1.38805 8.0817
LeftToes  1.06243e-005 4.65856e-005 -8.18503e-006
337
root  40.5119 39.3261 -11.0574 -141.746 82.2709 -150.79
RightUpLeg  -30.33 -15.4136 4.95933
RightLeg  17.3526 8.63496 3.16075
RightFoot  8.05349 -0.682442 4.3128
RightToes  0.00048216 0.542163 -0.142577
Spine  51.4141 -2.03803 3.32119
Spine1  6.50683 0.54257 -2.86397
HEad  -25.0745 7.88317 -14.1225
LeftShoulder1  9.9833 -17.5737 -41.0306
LeftArm  -20.4126 -3.08649 -22.2927
LeftForeArm  13.6395 -68.6106 -29.372
LeftHand  -0.25398 0.0180481 5.50724
RightShoulder  5.69032 11.7192 31.4265
RightArm  -15.6731 2.18292 24.9675
RightForeArm  6.42041 74.9565 51.9468
RightHand  -0.0279353 -14.5446 -0.943343
LeftUpLeg  -33.654 27.6657 -6.4907
LeftLeg  18.2855 -7.57524 -3.18553
LeftFoot  7.65615 -1.35779 7.82248
LeftToes  1.06243e-005 4.65856e-005 -8.18503e-006
338
root  40.2038 39.2731 -10.7093 -148.737 81.5466 -154.822
RightUpLeg  -27.5752 -8.53805 1.21835
RightLeg  23.6689 6.91472 3.00321
RightFoot  2.81791 -0.79728 6.51388
RightToes  0.00048216 0.542163 -0.142577
Spine  49.6652 -1.82867 2.76046
Spine1  6.75862 0.374988 -2.57787
HEad  -23.4468 10.5363 -15.125
LeftShoulder1  10.1038 -17.1055 -42.5876
LeftArm  -20.115 1.94183 -20.8614
LeftForeArm  16.9211 -70.7511 -33.4519
LeftHand  -0.25398 0.0180481 5.50724
RightShoulder  5.75044 11.5334 32.295
RightArm  -14.5208 -0.615059 25.7572
RightForeArm  14.8926 76.2911 59.982
RightHand  -0.0137933 -15.7655 -1.07323
LeftUpLeg  -30.7369 27.559 -4.77079
LeftLeg  18.3715 -8.03152 -3.52498
LeftFoot  8.30419 -1.33804 7.42545
LeftToes  1.06243e-005 4.65856e-005 -8.18503e-006
339
root  39.8784 39.2013 -10.2935 -157.499 80.3703 -160.94
RightUpLeg  -25.057 -2.70369 -1.47274
RightLeg  29.9779 5.34955 3.11242
RightFoot  -1.88015 -0.609901 7.16731
RightToes  0.00048216 0.542163 -0.142577
Spine  47.9659 -1.75107 2.55276
Spine1  6.68066 0.184825 -2.43822
HEad  -21.8772 13.293 -16.0328
LeftShoulder1  10.1406 -16.6902 -43.6912
LeftArm  -19.7571 6.40199 -19.7292
LeftForeArm  20.3172 -72.4214 -37.4753
LeftHand  -0.25398 0.0180481 5.50724
RightShoulder  5.71826 11.1703 33.0225
RightArm  -13.5488 -3.32542 26.671
RightForeArm  22.9934 77.1932 68.2591
RightHand  0.06193 -16.8457 -1.79008
LeftUpLeg  -28.0339 26.5956 -3.44459
LeftLeg  18.0328 -8.31748 -3.67986
LeftFoot  9.06231 -1.28972 6.84945
LeftToes  1.06243e-005 4.65856e-005 -8.18503e-006
340
root  39.5437 39.088 -9.81348 -165.425 78.4741 -166.23
RightUpLeg  -21.9282 1.13874 -2.77915
RightLeg  35.3332 5.87222 4.22501
RightFoot  -5.99111 -0.403074 7.79023
RightToes  0.00048216 0.542163 -0.142577
Spine  46.3572 -1.87615 2.76786
Spine1  6.50522 0.00750276 -2.40754
HEad  -20.2638 16.8706 -17.2978
LeftShoulder1  10.1062 -16.2758 -44.4983
LeftArm  -19.5248 10.2844 -19.0044
LeftForeArm  23.6631 -73.6675 -41.1582
LeftHand  -0.25398 0.0180481 5.50724
RightShoulder  5.69215 10.857 33.6882
RightArm  -12.6014 -5.73795 27.2948
RightForeArm  29.343 77.6615 75.0023
RightHand  0.164036 -17.563 -2.67035
LeftUpLeg  -25.5503 25.3285 -2.37617
LeftLeg  17.757 -8.94139 -3.8427
LeftFoot  9.64302 -1.27656 6.56484
LeftToes  1.06243e-005 4.65856e-005 -8.18503e-006
341
root  39.1975 38.9139 -9.26594 -172.414 75.9496 -170.713
RightUpLeg  -18.4242 3.59532 -3.31868
RightLeg  40.0285 7.7203 6.64303
RightFoot  -8.91256 -0.268198 9.79511
RightToes  0.00048216 0.542163 -0.142577
Spine  44.5899 -2.0059 3.04408
Spine1  6.35672 -0.182594 -2.26686
HEad  -18.6909 21.6183 -19.2536
LeftShoulder1  10.0398 -15.8945 -45.103
LeftArm  -19.4734 13.7939 -18.6756
LeftForeArm  27.1914 -74.6873 -44.7674
LeftHand  -0.25398 0.0180481 5.50724
RightShoulder  5.72607 10.6833 34.4065
RightArm  -11.4693 -7.75791 27.2858
RightForeArm  33.5125 77.864 79.6703
RightHand  0.267309 -17.724 -3.58117
LeftUpLeg  -23.4411 23.6778 -1.76573
LeftLeg  17.5544 -9.80355 -3.99861
LeftFoot  10.4404 -1.34451 6.64669
LeftToes  1.06243e-005 4.65856e-005 -8.18503e-006
342
root  38.8282 38.6672 -8.66611 -179.411 73.045 -176.166
RightUpLeg  -15.6583 5.16225 -4.0383
RightLeg  44.4298 9.43401 9.47852
RightFoot  -10.1985 -0.197141 12.7671
RightToes  0.00048216 0.542163 -0.142577
Spine  41.8963 -1.83841 2.85552
Spine1  6.41539 -0.315885 -1.99918
HEad  -17.425 27.1748 -21.8446
LeftShoulder1  9.96647 -15.5613 -45.5755
LeftArm  -19.4826 16.9136 -18.581
LeftForeArm  31.8557 -75.7435 -49.2948
LeftHand  -0.25398 0.0180481 5.50724
RightShoulder  5.72819 10.5131 34.9054
RightArm  -10.2303 -9.52303 26.9597
RightForeArm  36.4782 77.9543 83.6049
RightHand  0.390477 -17.3745 -4.8102
LeftUpLeg  -22.376 21.0703 -2.24481
LeftLeg  17.1044 -10.122 -4.01376
LeftFoot  11.6506 -1.34927 6.28023
LeftToes  1.06243e-005 4.65856e-005 -8.18503e-006
343
root  38.4217 38.388 -8.045 174.69 69.718 178.39
RightUpLeg  -13.3855 5.64245 -4.96892
RightLeg  47.26 10.0975 11.1737
RightFoot  -11.4053 -0.0722425 13.2388
RightToes  0.00048216 0.542163 -0.142577
Spine  38.0864 -1.41766 2.48167
Spine1  6.86665 -0.282824 -1.68394
HEad  -16.4779 32.9873 -24.5453
LeftShoulder1  9.89264 -15.2775 -45.9347
LeftArm  -19.5023 19.4076 -18.7119
LeftForeArm  38.124 -76.8288 -55.2233
LeftHand  -0.25398 0.0180481 5.50724
RightShoulder  5.63804 10.2966 34.8933
RightArm  -9.16056 -11.17 26.6846
RightForeArm  38.8433 77.9755 87.3923
RightHand  0.505129 -16.9548 -6.05153
LeftUpLeg  -22.2942 17.8073 -3.68479
LeftLeg  16.1558 -10.0332 -3.97412
LeftFoot  13.0358 -1.23087 5.32271
LeftToes  1.06243e-005 4.65856e-005 -8.18503e-006
344
root  37.9703 38.143 -7.40997 171.595 65.7331 175.764
RightUpLeg  -10.1586 4.35148 -4.94581
RightLeg  46.7171 9.37528 10.2163
RightFoot  -14.7791 0.127503 8.46087
RightToes  0.00048216 0.542163 -0.142577
Spine  34.321 -1.13776 2.95854
Spine1  7.44357 -0.108442 -1.30447
HEad  -15.7372 38.8329 -26.8909
LeftShoulder1  9.78914 -15.038 -46.0448
LeftArm  -19.5799 21.1718 -19.274
LeftForeArm  45.3906 -77.7521 -62.0394
LeftHand  -0.25398 0.0180481 5.50724
RightShoulder  5.50394 10.1038 34.4933
RightArm  -8.3673 -12.6809 26.3618
RightForeArm  40.6217 77.9502 90.5246
RightHand  0.559665 -17.0201 -6.54745
LeftUpLeg  -21.9764 14.5863 -4.85956
LeftLeg  14.5195 -10.5754 -4.13374
LeftFoot  14.8492 -1.19624 4.73164
LeftToes  1.06243e-005 4.65856e-005 -8.18503e-006
345
root  37.4371 37.9343 -6.71675 170.85 61.1275 176.144
RightUpLeg  -6.24708 1.29318 -3.61529
RightLeg  43.1393 6.8555 6.57366
RightFoot  -19.8455 -0.0199465 1.49166
RightToes  0.00048216 0.542163 -0.142577
Spine  31.7377 -1.17668 4.68355
Spine1  7.79357 0.21998 -1.2641
HEad  -15.4357 44.2867 -28.8505
LeftShoulder1  9.61312 -14.8107 -45.7691
LeftArm  -19.6467 22.0939 -20.3596
LeftForeArm  53.1385 -78.4419 -69.2639
LeftHand  -0.25398 0.0180481 5.50724
RightShoulder  5.36216 9.91452 34.0128
RightArm  -7.89901 -13.9465 25.7865
RightForeArm  42.4867 77.8997 93.4673
RightHand  0.557324 -17.5773 -6.26433
LeftUpLeg  -20.8313 10.8688 -4.78467
LeftLeg  11.8932 -11.4891 -4.58528
LeftFoot  17.6376 -1.07416 3.75184
LeftToes  1.06243e-005 4.65856e-005 -8.18503e-006
346
root  36.7635 37.7779 -5.96654 171.268 56.427 177.601
RightUpLeg  -4.07561 -2.61125 -2.12282
RightLeg  39.538 3.53107 2.81351
RightFoot  -23.2839 -0.410558 -2.53864
RightToes  0.00048216 0.542163 -0.142577
Spine  29.8977 -1.33772 7.42052
Spine1  8.21718 0.913567 -2.15588
HEad  -16.5353 49.1352 -31.5786
LeftShoulder1  9.41818 -14.5929 -45.3675
LeftArm  -19.4948 21.9552 -21.6876
LeftForeArm  61.4794 -78.9246 -76.9137
LeftHand  -0.25398 0.0180481 5.50724
RightShoulder  5.20784 9.68173 33.5519
RightArm  -7.96972 -14.9645 24.9848
RightForeArm  45.2019 77.7972 97.2565
RightHand  0.539658 -18.0225 -5.91244
LeftUpLeg  -19.4003 5.62098 -3.28574
LeftLeg  7.38344 -10.7702 -5.12382
LeftFoot  20.7555 0.154518 -0.93289
LeftToes  1.06243e-005 4.65856e-005 -8.18503e-006
347
root  35.9705 37.7111 -5.24224 172.196 52.1063 178.912
RightUpLeg  -4.67293 -6.70752 -1.44364
RightLeg  38.435 1.79324 1.23468
RightFoot  -23.5788 -0.510377 -3.27537
RightToes  0.00048216 0.542163 -0.142577
Spine  27.8856 -1.31575 10.7167
Spine1  9.08059 2.02883 -3.85161
HEad  -18.9493 53.0221 -35.2319
LeftShoulder1  9.33337 -14.4358 -45.3521
LeftArm  -19.0129 20.9795 -22.849
LeftForeArm  69.7451 -79.1943 -84.3245
LeftHand  -0.25398 0.0180481 5.50724
RightShoulder  5.07176 9.50365 33.0495
RightArm  -8.59333 -15.9295 24.0419
RightForeArm  47.9144 77.6389 101.101
RightHand  0.524684 -18.0466 -5.77072
LeftUpLeg  -18.0558 0.887528 -1.42241
LeftLeg  1.17938 -8.4568 -5.42437
LeftFoot  21.9777 2.9526 -10.3747
LeftToes  1.06243e-005 4.65856e-005 -8.18503e-006
348
root  35.1591 37.7282 -4.59194 173.001 47.8716 179.981
RightUpLeg  -6.08948 -11.1311 -1.51774
RightLeg  38.6781 1.97063 1.40253
RightFoot  -22.1626 -0.425449 -2.90662
RightToes  0.00048216 0.542163 -0.142577
Spine  25.9828 -1.07182 13.6878
Spine1  9.94502 3.14791 -5.39139
HEad  -21.062 55.9901 -38.1044
LeftShoulder1  9.35945 -14.3272 -45.7708
LeftArm  -18.2796 19.9947 -23.7605
LeftForeArm  75.9944 -79.2847 -89.7413
LeftHand  -0.25398 0.0180481 5.50724
RightShoulder  4.98777 9.45631 32.5445
RightArm  -9.29994 -17.0364 23.0143
RightForeArm  49.0027 77.5378 102.929
RightHand  0.466491 -18.0838 -5.24971
LeftUpLeg  -16.836 -0.0305721 -0.747494
LeftLeg  -3.41585 -6.99619 -5.65664
LeftFoot  19.6979 5.33457 -19.5456
LeftToes  1.06243e-005 4.65856e-005 -8.18503e-006
